HIERARCHY
ROOT RootJoint
{
    OFFSET   0.000000   0.000000   0.000000
    CHANNELS 6 Xposition Yposition Zposition Xrotation Yrotation Zrotation
    JOINT pelvis_lowerback
    {
        OFFSET   0.000000   0.093605   0.000000
        CHANNELS 3 Xrotation Yrotation Zrotation
        JOINT lowerback_torso
        {
            OFFSET   0.000000   0.100000   0.000000
            CHANNELS 3 Xrotation Yrotation Zrotation
            JOINT torso_head
            {
                OFFSET   0.000000   0.282350   0.000000
                CHANNELS 3 Xrotation Yrotation Zrotation
                End Site
                {
                    OFFSET   0.000000   0.192650   0.000000
                }
            }
            JOINT rTorso_Clavicle
            {
                OFFSET  -0.001000   0.157500   0.000000
                CHANNELS 3 Xrotation Yrotation Zrotation
                JOINT rShoulder
                {
                    OFFSET  -0.117647   0.000000   0.000000
                    CHANNELS 3 Xrotation Yrotation Zrotation
                    JOINT rElbow
                    {
                        OFFSET  -0.245000   0.000000   0.000000
                        CHANNELS 3 Xrotation Yrotation Zrotation
                        JOINT rWrist
                        {
                            OFFSET  -0.240000   0.000000   0.000000
                            CHANNELS 3 Xrotation Yrotation Zrotation
                            End Site
                            {
                                OFFSET  -0.116353  -0.002500   0.000000
                            }
                        }
                    }
                }
            }
            JOINT lTorso_Clavicle
            {
                OFFSET   0.001000   0.157500   0.000000
                CHANNELS 3 Xrotation Yrotation Zrotation
                JOINT lShoulder
                {
                    OFFSET   0.117647   0.000000   0.000000
                    CHANNELS 3 Xrotation Yrotation Zrotation
                    JOINT lElbow
                    {
                        OFFSET   0.245000   0.000000   0.000000
                        CHANNELS 3 Xrotation Yrotation Zrotation
                        JOINT lWrist
                        {
                            OFFSET   0.240000   0.000000   0.000000
                            CHANNELS 3 Xrotation Yrotation Zrotation
                            End Site
                            {
                                OFFSET   0.116353  -0.002500   0.000000
                            }
                        }
                    }
                }
            }
        }
    }
    JOINT rHip
    {
        OFFSET  -0.100000  -0.051395   0.000000
        CHANNELS 3 Xrotation Yrotation Zrotation
        JOINT rKnee
        {
            OFFSET   0.000000  -0.410000   0.000000
            CHANNELS 3 Xrotation Yrotation Zrotation
            JOINT rAnkle
            {
                OFFSET   0.000000  -0.390000   0.000000
                CHANNELS 3 Xrotation Yrotation Zrotation
                JOINT rToeJoint
                {
                    OFFSET   0.000000  -0.050000   0.130000
                    CHANNELS 3 Xrotation Yrotation Zrotation
                    End Site
                    {
                        OFFSET  -0.010000   0.002000   0.060000
                    }
                }
            }
        }
    }
    JOINT lHip
    {
        OFFSET   0.100000  -0.051395   0.000000
        CHANNELS 3 Xrotation Yrotation Zrotation
        JOINT lKnee
        {
            OFFSET   0.000000  -0.410000   0.000000
            CHANNELS 3 Xrotation Yrotation Zrotation
            JOINT lAnkle
            {
                OFFSET   0.000000  -0.390000   0.000000
                CHANNELS 3 Xrotation Yrotation Zrotation
                JOINT lToeJoint
                {
                    OFFSET   0.000000  -0.050000   0.130000
                    CHANNELS 3 Xrotation Yrotation Zrotation
                    End Site
                    {
                        OFFSET   0.010000   0.002000   0.060000
                    }
                }
            }
        }
    }
}
MOTION
Frames: 8
Frame Time:   0.008333
 -2.376719   0.925631   3.975860   0.000000   0.000000   0.000000   0.000000   0.000000   0.000000   0.000000   0.000000   0.000000   0.000000   0.000000   0.000000   0.000000   0.000000   0.000000   0.000000   0.000000   0.000000   0.000000   0.000000   0.000000   0.000000   0.000000   0.000000   0.000000   0.000000   0.000000   0.000000   0.000000   0.000000   0.000000   0.000000   0.000000   0.000000   0.000000   0.000000   0.000000   0.000000   0.000000   0.000000   0.000000   0.000000   0.000000   0.000000   0.000000   0.000000   0.000000   0.000000   0.000000   0.000000   0.000000   0.000000   0.000000   0.000000   0.000000   0.000000   0.000000   0.000000   0.000000   0.000000
 -2.375927   0.923659   3.974465  -1.495322  -0.321694   0.307318   2.288963   0.437849  -0.062133  -0.345759  -0.178194  -0.320962   0.258092  -0.049366  -0.051901  -0.821190  -0.109238  -0.837187  -1.763489   0.218423  -0.070658  -0.031180   3.428146   0.064850  -0.046511  -2.150141   1.252410  -0.952607   0.361388   1.167265  -1.587258   0.092284   0.246820  -0.042884  -3.467273  -0.064573  -0.114979   1.473244  -1.556349   0.664018  -0.284586  -0.654803   3.077976   0.008676  -0.016493  -3.209912  -0.723423   0.107303   0.145049   0.000305  -0.001669   0.275496   0.373489  -0.292184   3.508938  -0.000443   0.001651  -1.077665  -0.163718  -0.025863  -0.234776  -0.000023   0.000226
 -2.375104   0.923613   3.972423  -3.433553  -0.869446   0.253724   4.802970   0.994025   0.148856  -0.343736  -0.237500  -0.491064   0.594205  -0.100796  -0.120731  -1.597716   0.134255  -1.839330  -3.415332   0.725747  -0.337160  -0.072695   7.034657   0.111942  -0.153793  -3.210043   2.217744  -1.858936   0.475375   2.550158  -3.071315  -0.031960   0.734159  -0.099401  -6.857345  -0.107419  -0.304764   1.863435  -2.793081   1.126183  -0.739319  -0.806495   6.121021   0.008276  -0.040758  -5.973810  -1.527261   0.363579   0.360882   0.000046  -0.004743   0.507155   0.808354  -0.272131   7.037932   0.000264  -0.002167  -2.441662  -0.250064  -0.044719  -1.268390  -0.000449   0.001967
 -2.373775   0.923085   3.970677  -5.526827  -1.540241   0.424335   7.212472   1.586335   0.128870  -0.199530  -0.217224  -0.680394   0.941467  -0.149940  -0.189373  -2.300659   0.614924  -3.066667  -4.945080   1.397823  -0.748935  -0.123897  10.717754   0.150359  -0.261058  -3.684513   2.957142  -2.691127   0.398263   4.255141  -4.444778  -0.291098   1.446245  -0.162433 -10.074557  -0.138476  -0.498484   1.796823  -3.656968   1.682849  -1.143104  -1.344490   9.455781   0.008223  -0.065428  -8.752372  -2.228216   0.464810   0.443133   0.000132  -0.005071   0.732856   1.156920  -0.488048  10.939413  -0.000746  -0.012643  -3.507484  -0.401201  -0.046591  -2.885671  -0.000802   0.008204
 -2.371960   0.921693   3.969412  -7.597202  -2.231011   0.639999   9.418593   2.174734   0.095941  -0.056974  -0.158555  -0.855165   1.263613  -0.197179  -0.263591  -2.937876   1.236706  -4.453994  -6.365547   2.168524  -1.285194  -0.178297  14.448684   0.184977  -0.366963  -3.811986   3.385101  -3.453837   0.186945   6.123771  -5.720174  -0.645970   2.298914  -0.223189 -13.111688  -0.162389  -0.692087   1.491335  -4.131106   2.374273  -1.470137  -2.219658  12.940737   0.012748  -0.086644 -11.369087  -2.837298   0.437648   0.502393   0.000369  -0.004905   0.893709   1.439259  -0.788112  14.938324  -0.002899  -0.024263  -4.480733  -0.611741  -0.073197  -4.456850  -0.001877   0.014985
 -2.369929   0.919546   3.968613  -9.568648  -2.909184   0.777818  11.408010   2.760801   0.120567   0.034367  -0.070552  -0.958353   1.549107  -0.241779  -0.329846  -3.515103   1.941673  -5.902191  -7.686306   2.995499  -1.880798  -0.230522  18.211772   0.217147  -0.472033  -3.718487   3.550948  -4.150970  -0.112616   8.057801  -6.906233  -1.064875   3.225199  -0.275930 -15.969616  -0.180256  -0.883157   1.045653  -4.286833   3.173476  -1.790974  -3.229943  16.299843   0.018316  -0.104096 -13.805937  -3.408324   0.383325   0.578520   0.000768  -0.004991   0.990026   1.719297  -1.003654  18.733344  -0.006704  -0.032152  -5.348129  -0.799874  -0.104817  -5.539656  -0.002268   0.017465
 -2.367800   0.916715   3.968208 -11.422837  -3.552081   0.828511  13.205621   3.341552   0.194839   0.072422   0.040733  -0.984992   1.798341  -0.283616  -0.385916  -4.035474   2.690326  -7.345144  -8.914168   3.847474  -2.485783  -0.278055  21.996694   0.246854  -0.576209  -3.486175   3.546766  -4.786478  -0.466803  10.004375  -8.009597  -1.523453   4.183401  -0.318052 -18.652381  -0.192215  -1.068168   0.521690  -4.206794   4.043174  -2.110941  -4.318709  19.484797   0.023603  -0.117615 -16.079464  -3.941677   0.307228   0.655588   0.001198  -0.005044   1.008115   1.996748  -1.103766  22.267777  -0.011420  -0.035939  -6.122205  -0.958561  -0.136905  -6.185410  -0.002039   0.016872
 -2.365975   0.913236   3.967103 -12.098699  -4.056535   1.000032  13.843502   3.677950   0.042616  -0.155956   0.167198  -0.887826   2.089089  -0.343200  -0.383320  -4.379819   3.364408  -8.767008  -9.889596   4.862767  -2.666916  -0.309611  25.806074   0.267188  -0.796947  -3.113974   3.238169  -5.198854  -0.667243  11.764048  -9.029357  -1.957022   4.930305  -0.350667 -21.542347  -0.204721  -1.249146   0.092453  -3.411829   3.453385  -2.650859  -5.671936  23.034338   0.029809  -0.139585 -17.569178  -4.736273   0.188463   0.828006   0.002662  -0.007044  -0.240466   2.430641  -0.937320  25.083892  -0.018767  -0.027211  -7.319953  -0.718397  -0.318013  -5.570554  -0.002420   0.014676
